<mxfile host="app.diagrams.net" modified="2020-10-30T08:36:44.153Z" agent="5.0 (Windows NT 10.0; WOW64) AppleWebKit/537.36 (KHTML, like Gecko) Chrome/84.0.4147.89 Safari/537.36" etag="qSahU5InbdMMA3S5zTk0" version="13.8.7" type="github">
  <diagram id="dGEUQEYOKf7xi6oKCXvR" name="第 1 页">
    <mxGraphModel dx="1422" dy="713" grid="1" gridSize="10" guides="1" tooltips="1" connect="1" arrows="1" fold="1" page="1" pageScale="1" pageWidth="827" pageHeight="1169" math="0" shadow="0">
      <root>
        <mxCell id="0" />
        <mxCell id="1" parent="0" />
        <mxCell id="AQbZ51xy2j0hXPdHt9mh-34" value="" style="rounded=0;whiteSpace=wrap;html=1;" vertex="1" parent="1">
          <mxGeometry x="140" y="515" width="530" height="390" as="geometry" />
        </mxCell>
        <mxCell id="AQbZ51xy2j0hXPdHt9mh-20" value="" style="rounded=0;whiteSpace=wrap;html=1;" vertex="1" parent="1">
          <mxGeometry x="140" y="40" width="500" height="460" as="geometry" />
        </mxCell>
        <mxCell id="AQbZ51xy2j0hXPdHt9mh-3" style="edgeStyle=orthogonalEdgeStyle;rounded=0;orthogonalLoop=1;jettySize=auto;html=1;exitX=0.5;exitY=0;exitDx=0;exitDy=0;entryX=0.567;entryY=0;entryDx=0;entryDy=0;entryPerimeter=0;curved=1;" edge="1" parent="1" source="AQbZ51xy2j0hXPdHt9mh-1" target="AQbZ51xy2j0hXPdHt9mh-2">
          <mxGeometry relative="1" as="geometry">
            <Array as="points">
              <mxPoint x="230" y="100" />
              <mxPoint x="498" y="100" />
            </Array>
          </mxGeometry>
        </mxCell>
        <mxCell id="AQbZ51xy2j0hXPdHt9mh-6" style="edgeStyle=orthogonalEdgeStyle;curved=1;rounded=0;orthogonalLoop=1;jettySize=auto;html=1;exitX=0.5;exitY=1;exitDx=0;exitDy=0;entryX=0.575;entryY=1.017;entryDx=0;entryDy=0;entryPerimeter=0;" edge="1" parent="1" source="AQbZ51xy2j0hXPdHt9mh-1" target="AQbZ51xy2j0hXPdHt9mh-2">
          <mxGeometry relative="1" as="geometry">
            <Array as="points">
              <mxPoint x="230" y="340" />
              <mxPoint x="499" y="340" />
            </Array>
          </mxGeometry>
        </mxCell>
        <mxCell id="AQbZ51xy2j0hXPdHt9mh-1" value="c" style="rounded=1;whiteSpace=wrap;html=1;" vertex="1" parent="1">
          <mxGeometry x="170" y="200" width="120" height="60" as="geometry" />
        </mxCell>
        <mxCell id="AQbZ51xy2j0hXPdHt9mh-5" style="edgeStyle=orthogonalEdgeStyle;curved=1;rounded=0;orthogonalLoop=1;jettySize=auto;html=1;exitX=0;exitY=0.5;exitDx=0;exitDy=0;entryX=1;entryY=0.5;entryDx=0;entryDy=0;" edge="1" parent="1" source="AQbZ51xy2j0hXPdHt9mh-2" target="AQbZ51xy2j0hXPdHt9mh-1">
          <mxGeometry relative="1" as="geometry" />
        </mxCell>
        <mxCell id="AQbZ51xy2j0hXPdHt9mh-2" value="s" style="rounded=1;whiteSpace=wrap;html=1;" vertex="1" parent="1">
          <mxGeometry x="430" y="200" width="120" height="60" as="geometry" />
        </mxCell>
        <mxCell id="AQbZ51xy2j0hXPdHt9mh-10" value="prot&lt;br&gt;65535" style="shape=note;whiteSpace=wrap;html=1;backgroundOutline=1;darkOpacity=0.05;fillColor=#fff2cc;strokeColor=#d6b656;" vertex="1" parent="1">
          <mxGeometry x="520" y="330" width="100" height="45" as="geometry" />
        </mxCell>
        <mxCell id="AQbZ51xy2j0hXPdHt9mh-11" value="&lt;font style=&quot;font-size: 18px&quot;&gt;ip:prot ---&amp;nbsp; ip:port&lt;/font&gt;" style="rounded=1;whiteSpace=wrap;html=1;" vertex="1" parent="1">
          <mxGeometry x="250" y="390" width="260" height="60" as="geometry" />
        </mxCell>
        <mxCell id="AQbZ51xy2j0hXPdHt9mh-12" value="&lt;font style=&quot;font-size: 18px&quot;&gt;四元组&lt;/font&gt;" style="text;html=1;strokeColor=none;fillColor=none;align=center;verticalAlign=middle;whiteSpace=wrap;rounded=0;" vertex="1" parent="1">
          <mxGeometry x="350" y="460" width="70" height="20" as="geometry" />
        </mxCell>
        <mxCell id="AQbZ51xy2j0hXPdHt9mh-13" value="&lt;font style=&quot;font-size: 18px&quot;&gt;socket（套接字）&lt;/font&gt;" style="text;html=1;strokeColor=none;fillColor=none;align=center;verticalAlign=middle;whiteSpace=wrap;rounded=0;" vertex="1" parent="1">
          <mxGeometry x="250" y="360" width="170" height="30" as="geometry" />
        </mxCell>
        <mxCell id="AQbZ51xy2j0hXPdHt9mh-16" value="建立连接" style="text;html=1;strokeColor=none;fillColor=none;align=center;verticalAlign=middle;whiteSpace=wrap;rounded=0;" vertex="1" parent="1">
          <mxGeometry x="320" y="70" width="90" height="20" as="geometry" />
        </mxCell>
        <mxCell id="AQbZ51xy2j0hXPdHt9mh-17" value="得到响应" style="text;html=1;strokeColor=none;fillColor=none;align=center;verticalAlign=middle;whiteSpace=wrap;rounded=0;" vertex="1" parent="1">
          <mxGeometry x="320" y="200" width="90" height="20" as="geometry" />
        </mxCell>
        <mxCell id="AQbZ51xy2j0hXPdHt9mh-18" value="给予回应" style="text;html=1;strokeColor=none;fillColor=none;align=center;verticalAlign=middle;whiteSpace=wrap;rounded=0;" vertex="1" parent="1">
          <mxGeometry x="320" y="310" width="90" height="20" as="geometry" />
        </mxCell>
        <mxCell id="AQbZ51xy2j0hXPdHt9mh-19" value="&lt;font style=&quot;font-size: 18px&quot;&gt;三次握手&lt;/font&gt;" style="text;html=1;strokeColor=none;fillColor=none;align=center;verticalAlign=middle;whiteSpace=wrap;rounded=0;" vertex="1" parent="1">
          <mxGeometry x="120" y="60" width="120" as="geometry" />
        </mxCell>
        <mxCell id="AQbZ51xy2j0hXPdHt9mh-23" style="edgeStyle=orthogonalEdgeStyle;curved=1;rounded=0;orthogonalLoop=1;jettySize=auto;html=1;exitX=0.5;exitY=0;exitDx=0;exitDy=0;entryX=0.5;entryY=0;entryDx=0;entryDy=0;" edge="1" parent="1" source="AQbZ51xy2j0hXPdHt9mh-21" target="AQbZ51xy2j0hXPdHt9mh-22">
          <mxGeometry relative="1" as="geometry">
            <Array as="points">
              <mxPoint x="220" y="650" />
              <mxPoint x="590" y="650" />
            </Array>
          </mxGeometry>
        </mxCell>
        <mxCell id="AQbZ51xy2j0hXPdHt9mh-29" style="edgeStyle=orthogonalEdgeStyle;curved=1;rounded=0;orthogonalLoop=1;jettySize=auto;html=1;exitX=0.5;exitY=1;exitDx=0;exitDy=0;entryX=0.575;entryY=0.983;entryDx=0;entryDy=0;entryPerimeter=0;" edge="1" parent="1" source="AQbZ51xy2j0hXPdHt9mh-21" target="AQbZ51xy2j0hXPdHt9mh-22">
          <mxGeometry relative="1" as="geometry">
            <Array as="points">
              <mxPoint x="220" y="820" />
              <mxPoint x="599" y="820" />
            </Array>
          </mxGeometry>
        </mxCell>
        <mxCell id="AQbZ51xy2j0hXPdHt9mh-21" value="&lt;font style=&quot;font-size: 18px&quot;&gt;c&lt;/font&gt;" style="rounded=1;whiteSpace=wrap;html=1;" vertex="1" parent="1">
          <mxGeometry x="160" y="710" width="120" height="60" as="geometry" />
        </mxCell>
        <mxCell id="AQbZ51xy2j0hXPdHt9mh-27" style="edgeStyle=orthogonalEdgeStyle;curved=1;rounded=0;orthogonalLoop=1;jettySize=auto;html=1;exitX=0;exitY=0.25;exitDx=0;exitDy=0;entryX=1;entryY=0.25;entryDx=0;entryDy=0;" edge="1" parent="1" source="AQbZ51xy2j0hXPdHt9mh-22" target="AQbZ51xy2j0hXPdHt9mh-21">
          <mxGeometry relative="1" as="geometry" />
        </mxCell>
        <mxCell id="AQbZ51xy2j0hXPdHt9mh-28" style="edgeStyle=orthogonalEdgeStyle;curved=1;rounded=0;orthogonalLoop=1;jettySize=auto;html=1;exitX=0;exitY=0.75;exitDx=0;exitDy=0;entryX=1;entryY=0.75;entryDx=0;entryDy=0;" edge="1" parent="1" source="AQbZ51xy2j0hXPdHt9mh-22" target="AQbZ51xy2j0hXPdHt9mh-21">
          <mxGeometry relative="1" as="geometry" />
        </mxCell>
        <mxCell id="AQbZ51xy2j0hXPdHt9mh-22" value="&lt;font style=&quot;font-size: 18px&quot;&gt;s&lt;/font&gt;" style="rounded=1;whiteSpace=wrap;html=1;" vertex="1" parent="1">
          <mxGeometry x="530" y="710" width="120" height="60" as="geometry" />
        </mxCell>
        <mxCell id="AQbZ51xy2j0hXPdHt9mh-30" value="&lt;font style=&quot;font-size: 18px&quot;&gt;请求断开&lt;/font&gt;" style="text;html=1;strokeColor=none;fillColor=none;align=center;verticalAlign=middle;whiteSpace=wrap;rounded=0;" vertex="1" parent="1">
          <mxGeometry x="360" y="620" width="100" height="20" as="geometry" />
        </mxCell>
        <mxCell id="AQbZ51xy2j0hXPdHt9mh-31" value="&lt;font style=&quot;font-size: 18px&quot;&gt;让我想想&lt;/font&gt;" style="text;html=1;strokeColor=none;fillColor=none;align=center;verticalAlign=middle;whiteSpace=wrap;rounded=0;" vertex="1" parent="1">
          <mxGeometry x="360" y="700" width="100" height="20" as="geometry" />
        </mxCell>
        <mxCell id="AQbZ51xy2j0hXPdHt9mh-32" value="&lt;font style=&quot;font-size: 18px&quot;&gt;断开吧&lt;/font&gt;" style="text;html=1;strokeColor=none;fillColor=none;align=center;verticalAlign=middle;whiteSpace=wrap;rounded=0;" vertex="1" parent="1">
          <mxGeometry x="360" y="760" width="100" height="20" as="geometry" />
        </mxCell>
        <mxCell id="AQbZ51xy2j0hXPdHt9mh-33" value="&lt;font style=&quot;font-size: 18px&quot;&gt;好的&lt;/font&gt;" style="text;html=1;strokeColor=none;fillColor=none;align=center;verticalAlign=middle;whiteSpace=wrap;rounded=0;" vertex="1" parent="1">
          <mxGeometry x="360" y="830" width="100" height="20" as="geometry" />
        </mxCell>
        <mxCell id="AQbZ51xy2j0hXPdHt9mh-35" value="&lt;font style=&quot;font-size: 18px&quot;&gt;四次分手&lt;/font&gt;" style="text;html=1;strokeColor=none;fillColor=none;align=center;verticalAlign=middle;whiteSpace=wrap;rounded=0;" vertex="1" parent="1">
          <mxGeometry x="150" y="530" width="80" height="20" as="geometry" />
        </mxCell>
      </root>
    </mxGraphModel>
  </diagram>
</mxfile>
